#!OML:ASF E:/inclinewalkrobotboard/Project1/Captureday1/Session1/subject1.ASF
:FULLY-SPECIFIED
:DEGREES
238
root 0 0 0 85.61803657050879 -33.18619639520133 -56.10474675025389
lowerback -11.442194411536203 9.710357807697306 14.196765248849184
upperback -20.793707434704295 12.30955543466697 3.1289407149150152
thorax -15.22964233071648 4.231939812043372 -3.783397248274074
lowerneck -8.943641458179437 11.972081298788131 6.2412166539305876
upperneck 10.15668485454792 14.26892161453894 9.165840792140013
head 4.524679366646465 7.72326660812245 2.793201414014222
rclavicle 9.435773542260023E-15 7.87966985079396E-15
rhumerus 33.72395372268621 -50.11666704902527 -14.509932016763408
rradius 19.91244531359743
rwrist 40.382071879487526
rhand 0.5628288453248116 2.329067738022344
rfingers 7.125020000000066
rthumb 26.13020763291107 -25.862288276543982
lclavicle 8.760624634556616E-16 2.0744543060466445E-15
lhumerus -7.2672230335984 12.987475024321313 -4.187377204139601
lradius 20.90271968316832
lwrist -38.94088466335097
lhand 0.5007881293172407 34.34586950286149
lfingers 7.125020000000039
lthumb 26.040546814349568 62.47697554523744
rfemur 206.3642535311941 -182.6939906659456 -174.2891056042706
rtibia 56.73704172370319
rfoot 58.31364763102452 -31.046443708000197
rtoes 15.773082280589861
lfemur -54.30528768651364 25.56238283582995 21.302172181002
ltibia 22.992820730539325
lfoot -66.0972950314652 8.911235171209777
ltoes 60.372755250923284
239
root 0 0 0 85.61801620712892 -33.18627122296677 -56.104748900138006
lowerback -11.442197143097843 9.710356769011067 14.196776437652654
upperback -20.793694801285554 12.309556400028494 3.128949588325509
thorax -15.229626564289696 4.2319403040783685 -3.7833935360943176
lowerneck -8.943651987800495 11.972072412093471 6.241210121977821
upperneck 10.156715833916762 14.26890860333039 9.16584084068684
head 4.524692849854635 7.72326019868553 2.7932020894904115
rclavicle 9.435547395720116E-15 7.878969336759014E-15
rhumerus 33.72031098914485 -50.11681503544398 -14.506935727806393
rradius 19.912609995128015
rwrist 40.3821828761686
rhand 0.5624875207910933 2.3293450819866086
rfingers 7.125020000000066
rthumb 26.129880874509276 -25.862090352590926
lclavicle 8.759234839454137E-16 2.0740937263138998E-15
lhumerus -7.269019429670413 12.987285705197957 -4.187480970478596
lradius 20.902672526264
lwrist -38.941051977558274
lhand 0.5006756706985385 34.345736239585
lfingers 7.125020000000039
lthumb 26.040438876922515 62.47684605541767
rfemur 206.36344418941798 -182.6934601853984 -174.28860652225887
rtibia 56.736750563419356
rfoot 58.313292636477726 -31.04722655263344
rtoes 15.773070233976458
lfemur -54.30513307539652 25.562405815175943 21.302170629595715
ltibia 22.992795021979884
lfoot -66.09712699073525 8.911195030502958
ltoes 60.372713295279524
240
root 0 0 0 85.61799920855839 -33.186316270045076 -56.10474678404083
lowerback -11.442198075091596 9.71035622750059 14.19678613757995
upperback -20.793689483963412 12.309557251539557 3.1289568999699915
thorax -15.229620136704735 4.231940287347527 -3.7833901672024277
lowerneck -8.943656165045637 11.972068320635147 6.241205294120711
upperneck 10.156732629232181 14.268902857850934 9.16584363048407
head 4.524699609569818 7.723257311598732 2.793203515374728
rclavicle 9.435365754411596E-15 7.878466969542866E-15
rhumerus 33.71779137516351 -50.11692221542222 -14.504837086273099
rradius 19.912713817313993
rwrist 40.38227214261468
rhand 0.562250500340062 2.329532973685729
rfingers 7.125020000000066
rthumb 26.129653948569537 -25.861957888054462
lclavicle 8.758069367104692E-16 2.0738281587362783E-15
lhumerus -7.2701596020361965 12.98714724136419 -4.187626706023067
lradius 20.902638591223635
lwrist -38.941156170694065
lhand 0.500618735689524 34.34565402805015
lfingers 7.125020000000039
lthumb 26.040384044151054 62.47676276926169
rfemur 206.36288745358308 -182.6930938364833 -174.28825719073177
rtibia 56.73655059473849
rfoot 58.313060950079944 -31.047763343890537
rtoes 15.773070935370308
lfemur -54.30502494231739 25.562420941622324 21.30217350916014
ltibia 22.992774581711593
lfoot -66.09700734286635 8.911162294287514
ltoes 60.372680760989056
241
root 0 0 0 85.6179837116643 -33.18634106776888 -56.104741169734204
lowerback -11.442197159821893 9.710356050849374 14.196795760754249
upperback -20.793689494684724 12.30955803774495 3.1289633501193155
thorax -15.229620740414788 4.231939808772879 -3.783387195406993
lowerneck -8.943655322330521 11.972067588675383 6.241201438010035
upperneck 10.156740142156467 14.268902174568241 9.165848981368317
head 4.524701771781599 7.723256891592572 2.793205667139304
rclavicle 9.435233801749485E-15 7.878121283447605E-15
rhumerus 33.71605307493044 -50.116997913584434 -14.503373549070368
rradius 19.912780193256815
rwrist 40.38234024942322
rhand 0.5620863088224781 2.329660127382432
rfingers 7.125020000000066
rthumb 26.129496747971345 -25.861869291474317
lclavicle 8.75719643929761E-16 2.0736454556763134E-15
lhumerus -7.270880185415377 12.987048265132682 -4.187767635507811
lradius 20.902615092781318
lwrist -38.94122061034284
lhand 0.5005912248389108 34.34560370754404
lfingers 7.125020000000039
lthumb 26.04035740274811 62.4767097059774
rfemur 206.3625098025197 -182.69284457615856 -174.28801732999835
rtibia 56.73641525994674
rfoot 58.31290866043146 -31.048125513864548
rtoes 15.773075648560923
lfemur -54.304949835203516 25.562431406758265 21.30217921070662
ltibia 22.992758319019284
lfoot -66.09692050537818 8.9111345577181
ltoes 60.37265675519473
